<svg width="14" height="14" viewBox="0 0 14 14" fill="none" xmlns="http://www.w3.org/2000/svg">
<path d="M12.8867 4.34018L8.52002 0.846842C7.66668 0.166842 6.33335 0.160175 5.48668 0.840175L1.12002 4.34018C0.493349 4.84018 0.113349 5.84017 0.246683 6.62684L1.08668 11.6535C1.28002 12.7802 2.32668 13.6668 3.46668 13.6668H10.5333C11.66 13.6668 12.7267 12.7602 12.92 11.6468L13.76 6.62017C13.88 5.84017 13.5 4.84018 12.8867 4.34018ZM7.50002 11.0002C7.50002 11.2735 7.27335 11.5002 7.00002 11.5002C6.72668 11.5002 6.50002 11.2735 6.50002 11.0002V9.00017C6.50002 8.72684 6.72668 8.50017 7.00002 8.50017C7.27335 8.50017 7.50002 8.72684 7.50002 9.00017V11.0002Z" fill="white"/>
</svg>
